<svg xmlns="http://www.w3.org/2000/svg" viewBox="0 0 30.75 30.75"><defs><style>.cls-1{fill:none;stroke:#231f20;stroke-miterlimit:10;stroke-width:0.75px;}.cls-2{fill:#fff;}</style></defs><title>Asset 9</title><g id="Layer_2" data-name="Layer 2"><g id="Layer_1-2" data-name="Layer 1"><rect class="cls-1" x="0.38" y="0.38" width="30" height="30" rx="4.5" ry="4.5"/><rect class="cls-2" x="6.4" y="12.62" width="18.67" height="5.56" transform="translate(-6.28 15.64) rotate(-45)"/><path d="M20.38,7.54l3.22,3.22L11.1,23.25,7.88,20,20.38,7.54m0-1.42L6.47,20l4.63,4.64L25,10.76,20.38,6.12Z"/><path class="cls-2" d="M21.14,6.06l2.34-2.34a1,1,0,0,1,1.33,0l2.6,2.61a.91.91,0,0,1,.28.66.92.92,0,0,1-.28.66L25.07,10Z"/><path d="M24.14,4a.4.4,0,0,1,.31.13l2.61,2.6a.44.44,0,0,1,0,.62l-2,2L21.85,6.06l2-2a.4.4,0,0,1,.3-.13m0-1a1.43,1.43,0,0,0-1,.42L20.44,6.06l4.63,4.64L27.76,8a1.42,1.42,0,0,0,0-2l-2.6-2.6a1.44,1.44,0,0,0-1-.42Z"/><polygon class="cls-2" points="6.55 21.03 10.11 24.59 4.22 26.91 6.55 21.03"/><path d="M6.73,21.92,9.21,24.4,5.11,26l1.62-4.1m-.37-1.78-3,7.66,7.67-3L6.36,20.14Z"/></g></g></svg>