<svg xmlns="http://www.w3.org/2000/svg" viewBox="0 0 30 30"><defs><style>.cls-1{fill:#fff;}</style></defs><title>Asset 17</title><g id="Layer_2" data-name="Layer 2"><g id="Layer_1-2" data-name="Layer 1"><rect class="cls-1" x="0.37" y="0.38" width="29.25" height="29.25" rx="4.13" ry="4.13"/><path d="M25.5.75A3.75,3.75,0,0,1,29.25,4.5v21a3.75,3.75,0,0,1-3.75,3.75H4.5A3.75,3.75,0,0,1,.75,25.5V4.5A3.75,3.75,0,0,1,4.5.75h21m0-.75H4.5A4.49,4.49,0,0,0,0,4.5v21A4.49,4.49,0,0,0,4.5,30h21A4.49,4.49,0,0,0,30,25.5V4.5A4.49,4.49,0,0,0,25.5,0Z"/><path d="M19.5,24.66V12.8a4.5,4.5,0,1,0-9,0V24.66H8.25V12.86a.88.88,0,0,0,0-.28,3,3,0,0,1,0-.42,6.75,6.75,0,1,1,13.5,0,3,3,0,0,1,0,.42.65.65,0,0,0,0,.31V24.66Z"/><path d="M15,6.15a6,6,0,0,1,6,6,1.72,1.72,0,0,1,0,.32A1.47,1.47,0,0,0,21,13v11h-.75V12.8a5.25,5.25,0,1,0-10.5,0V23.91H9V13a1.67,1.67,0,0,0,0-.5,1.67,1.67,0,0,1,0-.32,6,6,0,0,1,6-6m0-1.5a7.5,7.5,0,0,0-7.5,7.51,4.36,4.36,0,0,0,0,.51h0V25.41h3.75V13.05h0a2.09,2.09,0,0,1,0-.25,3.75,3.75,0,1,1,7.5,0,2.09,2.09,0,0,1,0,.25h0V25.41H22.5V12.67h0a4.36,4.36,0,0,0,0-.51A7.51,7.51,0,0,0,15,4.65Z"/><rect class="cls-1" x="7.87" y="22.53" width="3" height="2.5"/><rect class="cls-1" x="19.13" y="22.53" width="3" height="2.5"/></g></g></svg>