<?xml version="1.0" encoding="utf-8"?>
<!DOCTYPE svg PUBLIC "-//W3C//DTD SVG 1.1//EN" "http://www.w3.org/Graphics/SVG/1.1/DTD/svg11.dtd">
<svg version="1.1" id="Layer_1" xmlns="http://www.w3.org/2000/svg" xmlns:xlink="http://www.w3.org/1999/xlink" x="0px" y="0px"
	 width="472px" height="392px" viewBox="0 0 472 392" enable-background="new 0 0 472 392" xml:space="preserve">
    <!--<circle cx="50" cy="50" r="40" stroke="green" stroke-width="4" fill="yellow" />-->
    <rect x="0"  y="0"  width="256"  height="256"  style="fill:#ffffff" />
    <min value="0" />
    <max value="84" />
    <path type="histogram"  style="fill:#ffffff;stroke:#000000;stroke-width:1.5"  d="  M 0 256   L 0 256   L 0 256   L 1 256   L 2 256   L 3 256   L 4 256   L 5 256   L 6 256   L 7 256   L 8 256   L 9 256   L 10 256   L 11 256   L 12 256   L 13 256   L 14 256   L 15 256   L 16 256   L 17 256   L 18 256   L 19 256   L 20 256   L 21 256   L 22 256   L 23 256   L 24 256   L 25 256   L 26 256   L 27 256   L 28 256   L 29 256   L 30 256   L 31 256   L 32 256   L 33 256   L 34 256   L 35 256   L 36 256   L 37 256   L 38 256   L 39 256   L 40 256   L 41 256   L 42 256   L 43 256   L 44 256   L 45 256   L 46 256   L 47 256   L 48 256   L 49 256   L 50 256   L 51 256   L 52 256   L 53 256   L 54 256   L 55 256   L 56 256   L 57 256   L 58 256   L 59 256   L 60 256   L 61 256   L 62 256   L 63 256   L 64 256   L 65 256   L 66 256   L 67 256   L 68 256   L 69 256   L 70 256   L 71 256   L 72 256   L 73 256   L 74 256   L 75 256   L 76 255   L 77 254   L 78 252   L 79 248   L 80 240   L 81 229   L 82 211   L 83 183   L 84 146   L 85 103   L 86 69   L 87 54   L 88 57   L 89 70   L 90 85   L 91 98   L 92 106   L 93 112   L 94 116   L 95 119   L 96 121   L 97 123   L 98 126   L 99 131   L 100 138   L 101 147   L 102 152   L 103 154   L 104 153   L 105 151   L 106 152   L 107 153   L 108 156   L 109 160   L 110 164   L 111 167   L 112 172   L 113 176   L 114 182   L 115 187   L 116 190   L 117 191   L 118 193   L 119 195   L 120 199   L 121 202   L 122 204   L 123 205   L 124 205   L 125 205   L 126 207   L 127 208   L 128 211   L 129 212   L 130 212   L 131 210   L 132 209   L 133 208   L 134 207   L 135 208   L 136 210   L 137 212   L 138 214   L 139 214   L 140 215   L 141 215   L 142 217   L 143 219   L 144 222   L 145 225   L 146 227   L 147 228   L 148 229   L 149 229   L 150 230   L 151 230   L 152 230   L 153 229   L 154 227   L 155 223   L 156 217   L 157 208   L 158 200   L 159 193   L 160 187   L 161 183   L 162 179   L 163 174   L 164 168   L 165 165   L 166 165   L 167 168   L 168 174   L 169 180   L 170 187   L 171 194   L 172 203   L 173 213   L 174 223   L 175 231   L 176 238   L 177 243   L 178 247   L 179 250   L 180 251   L 181 253   L 182 253   L 183 254   L 184 254   L 185 254   L 186 255   L 187 255   L 188 255   L 189 255   L 190 256   L 191 256   L 192 256   L 193 256   L 194 256   L 195 256   L 196 256   L 197 256   L 198 256   L 199 256   L 200 256   L 201 256   L 202 256   L 203 256   L 204 256   L 205 256   L 206 256   L 207 256   L 208 256   L 209 256   L 210 256   L 211 256   L 212 256   L 213 256   L 214 256   L 215 256   L 216 256   L 217 256   L 218 256   L 219 256   L 220 256   L 221 256   L 222 256   L 223 256   L 224 256   L 225 256   L 226 256   L 227 256   L 228 256   L 229 256   L 230 256   L 231 256   L 232 256   L 233 256   L 234 256   L 235 256   L 236 256   L 237 256   L 238 256   L 239 256   L 240 256   L 241 256   L 242 256   L 243 256   L 244 256   L 245 256   L 246 256   L 247 256   L 248 256   L 249 256   L 250 256   L 251 256   L 252 256   L 253 256   L 254 256   L 255 256   L 256 256   L 256 256  " />
</svg>