<?xml version="1.0" encoding="utf-8"?>
<!-- Generator: Adobe Illustrator 19.1.0, SVG Export Plug-In . SVG Version: 6.00 Build 0)  -->
<!DOCTYPE svg PUBLIC "-//W3C//DTD SVG 1.1//EN" "http://www.w3.org/Graphics/SVG/1.1/DTD/svg11.dtd">
<svg version="1.1" xmlns="http://www.w3.org/2000/svg" xmlns:xlink="http://www.w3.org/1999/xlink" x="0px" y="0px" width="128px"
	 height="128px" viewBox="0 0 128 128" enable-background="new 0 0 128 128" xml:space="preserve">
<g id="Layer_2">
	
		<linearGradient id="SVGID_1_" gradientUnits="userSpaceOnUse" x1="-299" y1="365.15" x2="-171" y2="365.15" gradientTransform="matrix(-1 0 0 1 -172 -302)">
		<stop  offset="0" style="stop-color:#FFFFFF;stop-opacity:0"/>
		<stop  offset="1" style="stop-color:#FFFFFF;stop-opacity:0"/>
	</linearGradient>
	<rect x="-1" y="-1" fill="url(#SVGID_1_)" width="128" height="128.3"/>
</g>
<g id="Layer_1">
	<polygon display="none" fill="#156777" points="128,128 0.2,128 0.2,0 6.1,0 6.1,122.1 128,122.1 	"/>
	<g display="none">
		<path display="inline" fill="#FFFFFF" d="M86.3,23.1c24.5,22.7,31.1,55.5,14.8,73.4s-49.4,13.9-73.9-8.8S-4,32.2,12.4,14.4
			S61.8,0.4,86.3,23.1z"/>
		<path display="inline" fill="#156777" d="M73.4,110.6c-15.8,0-33.5-7.1-48.2-20.7C12.9,78.5,4.5,64.3,1.6,49.8
			c-3-14.8,0.1-28.1,8.6-37.5C18.8,3,31.7-1.2,46.6,0.6C61.2,2.3,76,9.6,88.3,20.9c25.7,23.7,32.4,58.5,15,77.6
			C95.8,106.6,85.2,110.6,73.4,110.6z M40.1,6.1c-10.5,0-19.4,3.5-25.5,10.2c-7.2,7.9-9.8,19.4-7.2,32.3C10,61.9,17.8,75,29.2,85.6
			c23.3,21.5,54.6,25.5,69.7,8.9c15.2-16.6,8.6-47.6-14.6-69.2C72.9,14.8,59.3,8.1,45.9,6.5C43.9,6.3,42,6.1,40.1,6.1z"/>
	</g>
	<g display="none">
		<path display="inline" fill="#FFFFFF" fill-opacity="0.5" d="M111.3,111.5c-14.8,14.7-35.3,17.9-45.9,7.2S58.3,87.3,73,72.6
			s35.3-17.9,45.9-7.2S126.1,96.8,111.3,111.5z"/>
		<path display="inline" fill="#156777" d="M81.8,128c-7.4,0-13.8-2.5-18.5-7.2c-5.8-5.9-8.1-14.5-6.5-24.1
			c1.5-9.3,6.5-18.6,14.1-26.1C78.5,63,87.8,58,97.1,56.6c9.6-1.5,18.1,0.9,23.9,6.8c5.8,5.9,8.1,14.5,6.5,24.1
			c-1.5,9.3-6.5,18.6-14.1,26.1c-7.6,7.5-16.9,12.5-26.1,13.9C85.4,127.9,83.6,128,81.8,128z M102.5,62.1c-1.5,0-3,0.1-4.5,0.4
			c-8.1,1.3-16.2,5.6-22.9,12.3C68.4,81.4,64,89.5,62.6,97.6c-1.3,7.7,0.5,14.5,4.9,19c4.4,4.5,11.1,6.3,18.8,5.1
			c8.1-1.3,16.2-5.6,22.9-12.3c6.7-6.7,11.1-14.8,12.4-22.9c1.3-7.7-0.5-14.5-4.9-19C113.2,63.9,108.3,62.1,102.5,62.1z"/>
	</g>
	<g display="none">
		<path display="inline" fill="#FFFFFF" fill-opacity="0.5" d="M40.9,114.9c-10.3,10.3-24.5,12.7-31.6,5.4
			c-7.2-7.3-4.6-21.5,5.7-31.8s24.5-12.7,31.6-5.4C53.8,90.4,51.2,104.6,40.9,114.9z"/>
		<path display="inline" fill="#156777" d="M20.1,127.8c-5.1,0-9.8-1.7-13.2-5.1c-4.2-4.3-5.9-10.6-4.6-17.6
			c1.2-6.7,4.9-13.3,10.3-18.8c11.6-11.5,27.8-14,36.2-5.4c8.4,8.5,5.8,24.9-5.7,36.4l0,0C36.3,124.1,27.7,127.8,20.1,127.8z
			 M35.7,82.2c-5.9,0-12.9,3.1-18.5,8.6c-4.5,4.5-7.5,9.9-8.5,15.3c-0.9,4.9,0.1,9.1,2.8,11.9c5.8,5.9,18.2,3.4,27.1-5.5
			c8.9-8.8,11.5-21.3,5.7-27.2C42.2,83.3,39.1,82.2,35.7,82.2z"/>
	</g>
	<g>
		<g>
			<path fill="#8AB3BB" d="M91.4,57c2.4,0,4.8,0.3,7.1,0.7c0.4-2.4,0.5-4.8,0.5-7.2C99,23.7,77.3,2,50.5,2S2,23.7,2,50.5
				C2,62.3,6.2,73,13.1,81.4c3.7-2.3,8-3.6,12.6-3.6c12.3,0,22.3,9.3,23.6,21.2c0.4,0,0.7,0,1.1,0c2.4,0,4.7-0.2,6.9-0.5
				c-0.4-2.2-0.7-4.5-0.7-6.9C56.8,72.5,72.3,57,91.4,57z"/>
			<path fill="#156777" d="M50.5,101c-0.2,0-0.5,0-0.7,0l-2.1,0l-0.2-1.7c-1.2-11.1-10.5-19.4-21.7-19.4c-4.1,0-8.1,1.2-11.6,3.3
				l-1.5,0.9l-1.1-1.4C4.1,73.7,0,62.2,0,50.5C0,22.7,22.7,0,50.5,0S101,22.7,101,50.5c0,2.5-0.2,5-0.6,7.5l-0.3,2.1l-2.1-0.4
				c-2.2-0.5-4.4-0.7-6.7-0.7c-18,0-32.6,14.6-32.6,32.6c0,2.2,0.2,4.4,0.6,6.5l0.4,2.1l-2.1,0.3C55.3,100.8,52.9,101,50.5,101z
				 M25.8,75.8c12.6,0,23.2,9,25.4,21.2c1.3,0,2.6-0.1,3.9-0.2c-0.2-1.7-0.4-3.4-0.4-5.1C54.8,71.4,71.2,55,91.4,55
				c1.8,0,3.6,0.1,5.4,0.4c0.2-1.6,0.3-3.3,0.3-4.9C97,24.9,76.1,4,50.5,4C24.9,4,4,24.9,4,50.5c0,10.2,3.4,20.2,9.6,28.3
				C17.4,76.8,21.5,75.8,25.8,75.8z"/>
		</g>
		<g>
			<path fill="#508D99" d="M98.5,57.7c-3.2,21.1-19.9,37.7-41,40.8c3.2,15.8,17.2,27.8,33.9,27.8c19.1,0,34.6-15.5,34.6-34.6
				C126,74.9,114.2,61,98.5,57.7z"/>
			<path fill="#156777" d="M91.4,128.2c-17.4,0-32.5-12.3-35.9-29.4l-0.4-2.1l2.1-0.3c20.2-2.9,36.3-19,39.3-39.1l0.3-2.1l2.1,0.4
				c16.9,3.5,29.1,18.6,29.1,35.9C128,111.8,111.6,128.2,91.4,128.2z M59.9,100.1c3.8,14.1,16.7,24.1,31.5,24.1
				c18,0,32.6-14.6,32.6-32.6c0-14.7-9.9-27.6-23.9-31.5C96.1,80.3,80,96.3,59.9,100.1z"/>
		</g>
		<g>
			<path fill="#DD6346" d="M98.5,57.7c-2.3-0.5-4.7-0.7-7.1-0.7c-19.1,0-34.6,15.5-34.6,34.6c0,2.4,0.2,4.7,0.7,6.9
				C78.6,95.5,95.3,78.8,98.5,57.7z"/>
			<path fill="#156777" d="M55.8,100.7l-0.4-1.9c-0.5-2.4-0.7-4.8-0.7-7.3C54.8,71.4,71.2,55,91.4,55c2.5,0,5,0.3,7.5,0.8l1.8,0.4
				l-0.3,1.9c-3.3,21.9-20.8,39.3-42.7,42.5L55.8,100.7z M91.4,59c-18,0-32.6,14.6-32.6,32.6c0,1.5,0.1,3.1,0.3,4.6
				c18.6-3.5,33.5-18.3,37.1-36.9C94.6,59.1,93,59,91.4,59z"/>
		</g>
		<g>
			<path fill="#C4D9DD" d="M13.1,81.4C6.5,85.6,2,93.1,2,101.6c0,13.1,10.6,23.8,23.8,23.8s23.8-10.6,23.8-23.8
				c0-0.9-0.1-1.7-0.1-2.6C34.8,98.7,21.8,91.9,13.1,81.4z"/>
			<path fill="#156777" d="M25.8,127.4C11.6,127.4,0,115.8,0,101.6c0-8.9,4.5-17.1,12.1-21.8l1.5-0.9l1.1,1.4
				C23.3,90.5,36,96.7,49.5,97l1.8,0l0.2,1.7c0.1,1,0.2,1.9,0.2,2.8C51.6,115.8,40,127.4,25.8,127.4z M12.8,84.1
				C7.3,88.2,4,94.6,4,101.6c0,12,9.8,21.8,21.8,21.8c12,0,21.8-9.8,21.8-21.8c0-0.2,0-0.4,0-0.7C34.2,100.1,21.7,94.1,12.8,84.1z"
				/>
		</g>
		<g>
			<path fill="#E68A74" d="M25.8,77.8c-4.6,0-9,1.3-12.6,3.6C21.8,91.9,34.8,98.7,49.4,99C48.1,87.1,38,77.8,25.8,77.8z"/>
			<path fill="#156777" d="M51.7,101l-2.3,0c-14.7-0.3-28.4-7-37.8-18.3l-1.5-1.8l1.9-1.2c4.1-2.6,8.8-4,13.7-4
				c13.2,0,24.2,9.9,25.6,23L51.7,101z M16.3,82c8,8.7,19,14,30.8,14.9C44.9,87,36.1,79.8,25.8,79.8C22.5,79.8,19.2,80.5,16.3,82z"
				/>
		</g>
	</g>
</g>
</svg>
