<?xml version="1.0" encoding="utf-8"?>
<!-- Generator: Adobe Illustrator 18.0.0, SVG Export Plug-In . SVG Version: 6.00 Build 0)  -->
<!DOCTYPE svg PUBLIC "-//W3C//DTD SVG 1.1//EN" "http://www.w3.org/Graphics/SVG/1.1/DTD/svg11.dtd">
<svg version="1.1" xmlns="http://www.w3.org/2000/svg" xmlns:xlink="http://www.w3.org/1999/xlink" x="0px" y="0px" width="128px"
	 height="128px" viewBox="0 0 128 128" enable-background="new 0 0 128 128" xml:space="preserve">
<g id="Layer_2_1_">
	<rect fill="none" width="128" height="128"/>
</g>
<g id="Layer_1">
	<g id="Layer_2">
		<g display="none">
			<g display="inline">
				<path fill="#FFFFFF" d="M58.6,9h-0.2c-1,0-1.8-0.8-1.8-1.8l0,0c0-1,0.8-1.8,1.8-1.8h20.3c1,0,1.8,0.8,1.8,1.8l0,0
					c0,1-0.8,1.8-1.8,1.8h-0.2v104.7v0.2c0,5.5-4.4,9.9-9.9,9.9s-9.9-4.4-9.9-9.9L58.6,9z"/>
				<path fill="#156777" d="M68.5,124.1c-5.7,0-10.3-4.6-10.3-10.3V9.3c-1.2-0.1-2.1-1-2.1-2.2s1-2.2,2.2-2.2h20.3
					c1.2,0,2.2,1,2.2,2.2s-0.9,2.1-2.1,2.2v104.3v0.2C78.8,119.5,74.2,124.1,68.5,124.1z M58.4,5.7c-0.8,0-1.5,0.7-1.5,1.5
					s0.7,1.5,1.5,1.5H59v105.2c0,5.2,4.3,9.5,9.5,9.5s9.5-4.3,9.5-9.5v-0.1v-0.2V8.6h0.6c0.8,0,1.5-0.7,1.5-1.5s-0.7-1.5-1.5-1.5
					L58.4,5.7L58.4,5.7z"/>
			</g>
			<path display="inline" fill="#C4D9DD" d="M78.4,26.2v87.4v0.2c0,5.5-4.4,9.9-9.9,9.9s-9.9-4.4-9.9-9.9l-0.2-87.6
				C58.4,26.2,78.4,26.2,78.4,26.2z"/>
			<path display="inline" fill="#8AB3BB" d="M78.4,26.2v87.4v0.2c0,3.4-1.7,6.3-4.3,8.1c-1.6,1.1-2.5-95.7-2.5-95.7L78.4,26.2z"/>
			<path fill="#156777" d="M78.4,26.2v87.4v0.2c0,2.4-0.9,4.7-2.3,6.4c-1.8,2.1,0-94,0-94L78.4,26.2z"/>
			<path display="inline" fill="#8AB3BB" d="M61.2,120.4c-1.6-1.7-2.5-4.1-2.5-6.6l-0.2-87.6h2.7V120.4z"/>
			<path display="inline" fill="#156777" stroke="#156777" stroke-miterlimit="10" d="M68.5,124.6c-5.9,0-10.8-4.8-10.8-10.8V9.8
				c-1.2-0.3-2.1-1.4-2.1-2.6c0-1.5,1.2-2.7,2.7-2.7h20.3c1.5,0,2.7,1.2,2.7,2.7c0,1.3-0.9,2.4-2.1,2.6v103.9v0.2
				C79.2,119.8,74.4,124.6,68.5,124.6z M58.4,6.2c-0.5,0-1,0.4-1,1c0,0.5,0.4,1,1,1h1.1v105.7c0,5,4,9,9,9s9-4,9-9v-0.1v-0.1V8.2
				h1.1c0.5,0,1-0.4,1-1c0-0.5-0.4-1-1-1H58.4z"/>
		</g>
		<g>
			<path display="none" fill="#8AB3BB" d="M98.9,11.5h-0.2c-1,0-1.8-0.8-1.8-1.8l0,0c0-1,0.8-1.8,1.8-1.8l16.5-2.5
				c1,0,5.6,3.3,5.6,4.4l0,0c0,1-0.8,1.8-1.8,1.8h-0.2v104.7v0.2c0,5.5-4.4,9.9-9.9,9.9s-14.4-5.9-14.4-11.4L98.9,11.5z"/>
			<g>
				<path fill="#FFFFFF" d="M93.2,10.3h-0.3c-1.3,0-2.3-1-2.3-2.3l0,0c0-1.3,1-2.3,2.3-2.3h26c1.3,0,2.3,1,2.3,2.3l0,0
					c0,1.3-1,2.3-2.3,2.3h-0.3v97.6v0.3c0,7.1-5.6,12.7-12.7,12.7c-7.1,0-12.7-5.6-12.7-12.7L93.2,10.3z"/>
				<path fill="#156777" d="M105.9,121.2c-7.3,0-13.2-5.9-13.2-13.2V10.7C91.1,10.5,90,9.4,90,7.8S91.3,5,92.8,5h26
					c1.5,0,2.8,1.3,2.8,2.8s-1.2,2.7-2.7,2.8v97v0.3C119.1,115.3,113.2,121.2,105.9,121.2z M92.9,6C91.9,6,91,6.9,91,8
					s0.9,1.9,1.9,1.9h0.8v98.2c0,6.7,5.5,12.2,12.2,12.2c6.7,0,12.2-5.5,12.2-12.2V108v-0.3V9.8h0.8c1,0,1.9-0.9,1.9-1.9
					s-0.9-1.9-1.9-1.9H92.9V6z"/>
			</g>
			<path fill="#508D99" d="M118.6,32.3v75.4v0.3c0,7.1-5.6,12.7-12.7,12.7c-7.1,0-12.7-5.6-12.7-12.7l-0.3-75.6
				C92.9,32.3,118.6,32.3,118.6,32.3z"/>
			<path fill="#156777" d="M118.6,32.3v75.4v0.3c0,4.4-2.2,8.1-5.5,10.4c-2.1,1.4-3.2-86-3.2-86L118.6,32.3z"/>
			<path fill="#156777" d="M96.5,116.4c-2.1-2.2-3.2-5.3-3.2-8.5l-0.3-75.6h3.5V116.4z"/>
			<path fill="#156777" stroke="#156777" stroke-miterlimit="10" d="M105.9,121.8c-7.6,0-13.9-6.2-13.9-13.9V11.3
				c-1.5-0.4-2.7-1.8-2.7-3.3c0-1.9,1.5-3.5,3.5-3.5h26c1.9,0,3.5,1.5,3.5,3.5c0,1.7-1.2,3.1-2.7,3.3v96.5v0.3
				C119.6,115.7,113.4,121.8,105.9,121.8z M92.9,6.7c-0.6,0-1.3,0.5-1.3,1.3c0,0.6,0.5,1.3,1.3,1.3h1.4v98.8
				c0,6.4,5.1,11.5,11.5,11.5c6.4,0,11.5-5.1,11.5-11.5V108v-0.1V9.2h1.4c0.6,0,1.3-0.5,1.3-1.3c0-0.6-0.5-1.3-1.3-1.3H92.9z"/>
			<g>
				<path fill="#FFFFFF" d="M50.6,10.3h-0.3c-1.3,0-2.3-1-2.3-2.3l0,0c0-1.3,1-2.3,2.3-2.3h26c1.3,0,2.3,1,2.3,2.3l0,0
					c0,1.3-1,2.3-2.3,2.3h-0.3v97.6v0.3c0,7.1-5.6,12.7-12.7,12.7s-12.7-5.6-12.7-12.7L50.6,10.3z"/>
				<path fill="#156777" d="M63.3,121.2c-7.3,0-13.2-5.9-13.2-13.2V10.7c-1.5-0.1-2.7-1.3-2.7-2.8S48.7,5,50.3,5h26
					c1.5,0,2.8,1.3,2.8,2.8s-1.2,2.7-2.7,2.8v97v0.3C76.5,115.3,70.6,121.2,63.3,121.2z M50.4,6c-1,0-1.9,0.9-1.9,1.9
					s0.9,1.9,1.9,1.9h0.8v98.2c0,6.7,5.5,12.2,12.2,12.2c6.7,0,12.2-5.5,12.2-12.2V108v-0.3V9.8h0.8c1,0,1.9-0.9,1.9-1.9
					s-0.9-1.9-1.9-1.9H50.4V6z"/>
			</g>
			<path fill="#C4D9DD" d="M76,32.3v75.4v0.3c0,7.1-5.6,12.7-12.7,12.7c-7.1,0-12.7-5.6-12.7-12.7l-0.3-75.6
				C50.4,32.3,76,32.3,76,32.3z"/>
			<path fill="#8AB3BB" d="M76,32.3v75.4v0.3c0,4.4-2.2,8.1-5.5,10.4c-2.1,1.4-3.2-86-3.2-86L76,32.3z"/>
			<path fill="#8AB3BB" d="M54,116.4c-2.1-2.2-3.2-5.3-3.2-8.5l-0.3-75.6H54V116.4z"/>
			<path fill="#156777" stroke="#156777" stroke-miterlimit="10" d="M63.3,121.8c-7.6,0-13.9-6.2-13.9-13.9V11.3
				c-1.5-0.4-2.7-1.8-2.7-3.3c0-1.9,1.5-3.5,3.5-3.5h26c1.9,0,3.5,1.5,3.5,3.5c0,1.7-1.2,3.1-2.7,3.3v96.5v0.3
				C77.1,115.7,70.9,121.8,63.3,121.8z M50.4,6.7c-0.6,0-1.3,0.5-1.3,1.3c0,0.6,0.5,1.3,1.3,1.3h1.4v98.8c0,6.4,5.1,11.5,11.5,11.5
				c6.4,0,11.5-5.1,11.5-11.5V108v-0.1V9.2h1.4c0.6,0,1.3-0.5,1.3-1.3c0-0.6-0.5-1.3-1.3-1.3H50.4z"/>
		</g>
		<g>
			<polygon fill="#DD6346" points="38.3,78.7 59.6,78.7 59.6,89.6 38.3,89.6 38.3,110.9 27.4,110.9 27.4,89.6 6,89.6 6,78.7 
				27.4,78.7 27.4,57.3 38.3,57.3 			"/>
		</g>
	</g>
</g>
</svg>
