<svg id="Layer_1" data-name="Layer 1" xmlns="http://www.w3.org/2000/svg" viewBox="0 0 260 260"><defs><style>.cls-1{fill:#7f1416;}.cls-2{fill:#be2026;}.cls-3{fill:#dc4326;}.cls-4{fill:#58595b;}.cls-5{fill:#939598;}</style></defs><title>fjFavicon</title><g id="Prism"><polygon class="cls-1" points="260.07 71.4 260.07 33.26 140.03 75.84 152.42 101.43 260.07 71.4"/><polygon class="cls-2" points="260.11 105.63 260.07 71.4 152.42 101.43 164.93 125.42 260.11 105.63"/><path class="cls-3" d="M260.11,105.63l0,31.05c0,.2-83.13,11.19-83.13,11.19l-11.76-23Z"/><path class="cls-4" d="M51.62,115c-.08.17-.17-.09,0,0l64.72,26.54L104.55.26C104.58-.14,51.62,115,51.62,115Z"/><path class="cls-4" d="M104.4,260.25.74,223.12a.36.36,0,0,1-.18-.48L29.95,161c.08-.17,80.33,25.05,80.32,25.21Z"/><path class="cls-5" d="M104.4,260.25c0,.25-.25,6.85.15-260L219,216.49C219.09,216.69,104.4,260.25,104.4,260.25Z"/><polygon class="cls-1" points="104.4 135.41 51.62 114.99 44.65 129.1 104.4 151.3 104.4 135.41"/><polygon class="cls-2" points="104.4 151.3 44.65 129.1 37.23 144.53 104.46 167.5 104.4 151.3"/><polygon class="cls-3" points="104.4 185.06 29.95 161.02 37.23 144.53 104.46 167.5 104.4 185.06"/></g></svg>